<svg xmlns="http://www.w3.org/2000/svg" xml:space="preserve" fill-rule="evenodd" stroke-linejoin="round" stroke-miterlimit="2" clip-rule="evenodd" viewBox="0 0 5000 5000">
  <g fill-rule="nonzero">
    <path d="M2655.57 1791.5a417.024 417.024 0 0 0-503.396-66.28 416.99 416.99 0 0 0-176.763 201.561 417.039 417.039 0 0 0-17.534 267.521 416.97 416.97 0 0 0 148.951 222.904 417.022 417.022 0 0 0 253.867 86.174 417.02 417.02 0 0 0 416.741-416.852 417.039 417.039 0 0 0-121.867-294.774l.001-.254Zm-228.285 362.135a94.165 94.165 0 0 1-66.583 27.58 94.176 94.176 0 0 1-66.584-27.583 94.165 94.165 0 0 1 0-133.17 94.152 94.152 0 0 1 66.584-27.579 94.14 94.14 0 0 1 66.583 27.575 94.157 94.157 0 0 1 0 133.177Zm265.01-10.627h.004a336.282 336.282 0 0 1-114.524 200.786 336.314 336.314 0 0 1-434.15 0 336.302 336.302 0 0 1-114.524-200.786l-2.552-16.278h163.714l2.824 9.687a174.876 174.876 0 0 0 95.165 109.089 174.86 174.86 0 0 0 144.769 0 174.87 174.87 0 0 0 95.165-109.089l2.824-9.687h163.849l-2.564 16.278Z"/>
    <path d="m4460.42 3140.46-358.4-289.454-253.713-588.833c-52.537-121.875-147.071-221.092-266.408-279.296l-292.967-143.162V915.506c0-43.162-34.961-78.125-78.125-78.125h-1711.5c-43.162 0-78.125 34.961-78.125 78.125v148.829l-848.458 179.492c-42.188 8.984-69.142 50.392-60.35 92.579l431.625 2042.96c4.296 20.312 16.406 38.085 33.789 49.412 12.891 8.398 27.539 12.695 42.579 12.695 5.469 0 10.742-.585 16.211-1.757l760.333-160.742h764.042l125.975 229.687c67.579 123.046 177.538 216.796 309.571 263.867l491.208 175.392 166.409 188.283c15.429 17.383 36.914 26.367 58.591 26.367 18.359 0 36.914-6.445 51.759-19.531 32.421-28.516 35.351-77.929 6.835-110.158l-179.687-203.321c-8.789-9.961-19.922-17.383-32.227-21.875l-510.166-182.225c-96.092-34.18-175.976-102.342-225-191.796l-84.767-154.688h226.562c5.274 14.454 10.157 28.907 16.602 42.967l37.695 83.204c13.086 28.907 41.407 45.9 71.092 45.9 10.742 0 21.68-2.343 32.227-7.031 39.258-17.773 56.641-64.258 38.867-103.517l-37.696-83.204c-61.525-135.741-47.462-296.679 36.524-419.708 20.117-29.492 17.773-68.75-5.664-95.508l-222.85-254.688c-58.788-67.187-56.055-169.725 6.054-233.592 7.617-7.617 20.117-7.812 27.734-.586l189.063 176.563.195.195 327.929 306.054c31.641 29.492 81.054 27.735 110.35-3.711 29.492-31.64 27.734-81.054-3.711-110.35l-301.17-281.25V2013.76l224.608 109.571c85.742 41.796 153.712 113.088 191.408 200.783l261.329 606.667c4.883 11.719 12.696 21.875 22.657 29.883l373.437 301.563c14.453 11.718 31.641 17.382 49.025 17.382 22.852 0 45.313-9.96 60.938-29.101 26.562-33.789 21.289-83.009-12.305-109.963l.066-.084ZM938.38 2596.127l482.833-953.083v620.5l-394.725 749.416-88.108-416.833Zm482.833-1298.67-534.416 1054.71-93.946-444.125 312.891-617.417 315.234-66.796.237 73.629Zm-511.5 34.766-168.358 332.033-59.963-283.591 228.321-48.442Zm167.188 1919.92 344.337-653.5v600l-340.429 71.875-3.908-18.375Zm1996.29-1113.08c-69.337-65.037-179.883-62.304-246.287 5.86-118.554 121.875-123.438 317.579-11.719 445.5l185.159 211.525c-52.93 98.633-75.975 210.35-68.163 320.704h-1354.71V993.572h1555.25v1201l-59.532-55.505Z"/>
  </g>
</svg>
